<svg width="190px" height="190px" version="1.1" id="aetmsvg" xmlns="http://www.w3.org/2000/svg" xmlns:svg="http://www.w3.org/2000/svg">

  <defs id="defs2"/>
  <g id="layer1">
    <path style="fill:#FFFFFF;fill-opacity:1;fill-rule:nonzero;stroke:#FFFFFF;stroke-width:1px;stroke-linecap:round;stroke-linejoin:round;stroke-opacity:1" d="M 52.665101,116.01697 C 70.688869,62.171598 70.688869,62.171598 70.688869,62.171598" id="path77"/>
    <path style="fill:#FFFFFF;stroke:#FFFFFF;stroke-width:1px;stroke-linecap:round;stroke-linejoin:round;stroke-opacity:1;fill-rule:nonzero;fill-opacity:1" d="M 75.641395,108.67035 C 88.74687,69.518217 88.74687,69.518217 88.74687,69.518217" id="path77-5"/>
    <path style="fill:#FFFFFF;stroke:#FFFFFF;stroke-width:1px;stroke-linecap:round;stroke-linejoin:round;stroke-opacity:1;fill-rule:nonzero;fill-opacity:1" d="M 101.85234,108.67035 C 88.74687,69.518217 88.74687,69.518217 88.74687,69.518217" id="path77-5-3"/>
    <path style="fill:#FFFFFF;stroke:#FFFFFF;stroke-width:1px;stroke-linecap:round;stroke-linejoin:round;stroke-opacity:1;fill-rule:nonzero;fill-opacity:1" d="M 88.712637,116.01697 C 70.688869,62.171598 70.688869,62.171598 70.688869,62.171598" id="path77-3"/>
    <path style="fill:#FFFFFF;stroke:#FFFFFF;stroke-width:1px;stroke-linecap:round;stroke-linejoin:round;stroke-opacity:1;fill-rule:nonzero;fill-opacity:1" d="M 88.963537,116.01697 C 106.98731,62.171594 106.98731,62.171594 106.98731,62.171594" id="path77-6"/>
    <path style="fill:#FFFFFF;fill-opacity:1;fill-rule:nonzero;stroke:#FFFFFF;stroke-width:1px;stroke-linecap:round;stroke-linejoin:round;stroke-opacity:1" d="M 125.01108,116.01697 C 106.98731,62.171594 106.98731,62.171594 106.98731,62.171594" id="path77-3-7"/>
    <path style="fill:#FFFFFF;fill-opacity:1;fill-rule:nonzero;stroke:#FFFFFF;stroke-width:1px;stroke-linecap:round;stroke-linejoin:round;stroke-opacity:1" id="path2743" d="m 94.481489,95.168887 c -0.217626,-0.0761 -0.273798,-0.0986 -0.537943,-0.16939 -0.47416,-0.12699 -0.954093,-0.23193 -1.428393,-0.35826 -0.890402,-0.23725 -0.958039,-0.26924 -1.832981,-0.54463 -0.955562,-0.33099 -1.90376,-0.70174 -2.780858,-1.21 -0.359511,-0.2084 -0.457224,-0.28644 -0.78142,-0.51419 -0.506827,-0.38929 -1.006846,-0.78855 -1.468598,-1.23081 -0.287412,-0.29585 -0.559003,-0.62131 -0.636869,-1.03903 -0.05306,-0.28509 -0.02182,-0.40129 0.0049,-0.68693 0.03002,-0.11632 0.05257,-0.23483 0.0904,-0.34877 0.169146,-0.51056 0.343829,-0.83165 0.87581,-1.04376 0.192177,-0.0775 0.222227,-0.071 0.503218,-0.11947 0.638706,-0.10421 1.307775,-0.0616 1.939484,0.0662 0.112927,0.0218 0.223917,0.0548 0.335827,0.0822 0.210597,0.0846 0.485363,0.16965 0.609509,0.38389 0.117051,0.20163 0.03248,0.42281 -0.031,0.62148 -0.37977,0.70361 -0.952414,1.27701 -1.475167,1.87425 -0.552066,0.63115 -1.100606,1.2654 -1.601421,1.9383 -0.479614,0.65953 -0.862967,1.38111 -1.195381,2.12383 -0.187084,0.48281 -0.465704,1.05223 -0.43262,1.58533 0.0049,0.0729 0.02542,0.14371 0.03806,0.21568 0.04724,0.0645 0.08457,0.13765 0.142009,0.19315 0.298436,0.28884 0.90089,0.34795 1.293865,0.34075 0.140802,-0.003 0.280802,-0.0243 0.421186,-0.0361 0.434613,-0.0672 0.845376,-0.20962 1.228394,-0.42579 0.526312,-0.29715 0.825838,-0.45882 1.246779,-0.80303 0.118019,-0.0965 0.228526,-0.20163 0.342765,-0.30235 0.61981,-0.56925 1.182062,-1.19647 1.739778,-1.82546 0.470404,-0.53491 0.934411,-1.07536 1.404594,-1.61046 0.206956,-0.23628 0.421547,-0.46556 0.632891,-0.69784 l -0.586537,0.2467 v 0 c -0.201379,0.22828 -0.403947,0.45584 -0.603128,0.6862 -0.463089,0.53474 -0.922101,1.07301 -1.389838,1.6037 -0.556044,0.62591 -1.11573,1.25074 -1.735171,1.81553 -0.115107,0.0996 -0.226582,0.20357 -0.345381,0.29871 -0.116559,0.0935 -0.248422,0.1677 -0.359995,0.26699 -0.02838,0.0252 0.139835,-0.0596 0.106389,-0.0412 -0.381581,0.21082 -0.777417,0.37302 -1.210964,0.43977 -0.137653,0.0145 -0.274593,0.0363 -0.41278,0.0404 -0.370117,0.01 -0.958687,-0.0412 -1.244501,-0.30946 -0.05134,-0.0483 -0.08434,-0.11293 -0.126262,-0.1694 -0.01214,-0.0674 -0.03198,-0.13353 -0.03658,-0.20187 -0.03494,-0.52732 0.236038,-1.07494 0.418857,-1.55274 0.337918,-0.73886 0.721878,-1.45759 1.204232,-2.11385 0.501782,-0.66883 1.046369,-1.30254 1.597081,-1.93141 0.191209,-0.21714 0.383821,-0.43298 0.57398,-0.65102 0.26636,-0.30534 0.535713,-0.61435 0.751879,-0.95869 0.06061,-0.0967 0.110269,-0.19993 0.165522,-0.29977 0.0652,-0.22901 0.140558,-0.45446 0.0049,-0.68068 -0.134742,-0.22441 -0.421335,-0.31432 -0.646121,-0.40209 -0.1156,-0.0266 -0.230224,-0.0574 -0.346816,-0.0795 -0.815128,-0.15557 -2.074736,-0.15606 -2.8301,0.1791 -0.327108,0.16915 -0.09839,-0.0122 -0.912382,0.57099 -0.420751,0.30152 -0.579261,0.80282 -0.67831,1.29761 -0.02428,0.29652 -0.05208,0.4125 0.0049,0.70812 0.08144,0.42895 0.353451,0.76241 0.648237,1.06836 0.466253,0.44554 0.968815,0.84874 1.489535,1.2292 0.340992,0.22586 0.433005,0.29568 0.808854,0.50386 0.896823,0.4968 1.86021,0.85689 2.827,1.191 0.730865,0.22997 1.081749,0.34521 1.817857,0.55794 0.624698,0.18054 1.268326,0.3201 1.866221,0.58193 l 0.534482,-0.35292 z"/>
  </g>
</svg>